# xmcd
#
# Track frame offsets: 
#        150
#        25033
#        45279
#        50467
#        63568
#        87427
#        103907
#        120515
#        139188
#        172981
#        192592
#
# Disc length: 2805 seconds
#
# Revision: 1
# Processed by: cddbd v1.5.2PL0 Copyright (c) Steve Scherf et al.
# Submitted via: ExactAudioCopy v1.3
#
DISCID=930af30b
DTITLE=Common - Let Love
DYEAR=2019
DGENRE=Black Feces
TTITLE0=Good Morning Love [feat. Samora Pinderhughes]
TTITLE1=Her Love [feat. Daniel Caesar and Dwele]
TTITLE2=Dwele's Interlude
TTITLE3=Hercules [feat. Swiss Beatz]
TTITLE4=Fifth Story [feat. Leikeli47]
TTITLE5=Forever Your Love [feat. BJ The Chicago Kid]
TTITLE6=Leaders (Crib Love) [feat. A-Trak]
TTITLE7=Memories Of Home [feat. BJ The Chicago Kid and Samora Pinderhugh
TTITLE7=es]
TTITLE8=Show Me That You Love [feat. Jill Scott and Samora Pinderhughes]
TTITLE9=My Fancy Free Future Love
TTITLE10=God Is Love [feat. Leon Bridges and Jonathan McReynolds]
EXTD=
EXTT0=
EXTT1=
EXTT2=
EXTT3=
EXTT4=
EXTT5=
EXTT6=
EXTT7=
EXTT8=
EXTT9=
EXTT10=
PLAYORDER=
